<?xml version="1.0" encoding="UTF-8"?>
<svg id="Layer_1" data-name="Layer 1" xmlns="http://www.w3.org/2000/svg" xmlns:xlink="http://www.w3.org/1999/xlink" viewBox="0 0 1159 771">
  <defs>
    <style>
      .cls-1 {
        fill: #fff;
      }

      .cls-2 {
        fill: #006dba;
      }

      .cls-3 {
        fill: #7cc0ea;
      }

      .cls-4 {
        fill: #020003;
      }

      .cls-5 {
        clip-path: url(#clippath);
      }

      .cls-6 {
        fill: none;
      }

      .cls-7 {
        fill: #fbe55f;
      }

      .cls-8 {
        fill: #ff8200;
      }
    </style>
    <clipPath id="clippath">
      <rect class="cls-6" x="261" y="212.72" width="400.54" height="494.24"/>
    </clipPath>
  </defs>
  <rect x="332.29" y="706.97" width="498.7" height="4.97"/>
  <g>
    <g>
      <g>
        <path class="cls-1" d="M821.25,661.65c-6.04-10.07-17.08-16.32-28.82-16.32h-131.05c-1.59,0-2.87,1.29-2.87,2.88s1.28,2.88,2.87,2.88h6.31c9.73,0,18.88,5.18,23.88,13.52l8.73,14.55c2.84,4.73,2.91,10.41,.19,15.22-2.71,4.8-7.63,7.66-13.14,7.66h-42.98c-1.59,0-2.87,1.29-2.87,2.87s1.28,2.88,2.87,2.88h167.73c7.61,0,14.39-3.96,18.14-10.58,3.76-6.63,3.66-14.48-.26-21.01l-8.73-14.54Z"/>
        <path d="M822.12,661.13c-6.22-10.36-17.59-16.81-29.68-16.81h-131.05c-2.14,0-3.89,1.74-3.89,3.89s1.75,3.88,3.89,3.88h6.31c9.37,0,18.19,4.99,23.02,13.03l8.72,14.55c2.65,4.42,2.71,9.72,.18,14.2-2.53,4.48-7.12,7.15-12.26,7.15h-42.98c-2.14,0-3.89,1.74-3.89,3.88s1.75,3.89,3.89,3.89h167.73c7.98,0,15.09-4.15,19.03-11.09,3.93-6.95,3.83-15.18-.28-22.03l-8.72-14.54Zm7.24,35.58c-3.57,6.31-10.02,10.07-17.26,10.07h-167.73c-1.03,0-1.87-.84-1.87-1.87s.84-1.87,1.87-1.87h42.98c5.88,0,11.12-3.06,14.02-8.17,2.9-5.12,2.83-11.19-.2-16.24l-8.72-14.55c-5.19-8.65-14.67-14.01-24.75-14.01h-6.31c-1.03,0-1.87-.84-1.87-1.86s.84-1.87,1.87-1.87h131.05c11.38,0,22.09,6.07,27.95,15.83l8.73,14.54c3.73,6.21,3.82,13.69,.25,19.99Z"/>
      </g>
      <g>
        <path d="M792.43,645.33h-131.05c-1.59,0-2.87,1.29-2.87,2.88s1.28,2.88,2.87,2.88h6.31c8.57,0,16.68,4.02,21.92,10.68h131.72l-.07-.12c-6.04-10.07-17.08-16.32-28.82-16.32Z"/>
        <path d="M792.43,644.32h-131.05c-2.14,0-3.89,1.74-3.89,3.89s1.75,3.88,3.89,3.88h6.31c8.16,0,16.05,3.85,21.12,10.3,.19,.25,.48,.39,.79,.39h131.72c.36,0,.67-.26,.84-.57,.18-.32,.13-.77-.05-1.08-6.22-10.36-17.59-16.81-29.68-16.81Zm-102.34,16.43c-5.46-6.7-13.8-10.68-22.4-10.68h-6.31c-1.03,0-1.87-.84-1.87-1.86s.84-1.87,1.87-1.87h131.05c10.82,0,21.04,5.48,27.05,14.42h-129.4Z"/>
      </g>
      <g>
        <path d="M822.78,661.65c-6.04-10.07-17.08-16.32-28.82-16.32h-6.31c-1.59,0-2.88,1.29-2.88,2.88s1.29,2.88,2.88,2.88h6.31c9.73,0,18.88,5.18,23.89,13.52l8.72,14.55c2.84,4.73,2.91,10.41,.19,15.22-2.72,4.8-7.63,7.66-13.15,7.66h-42.98c-1.59,0-2.88,1.29-2.88,2.87s1.29,2.88,2.88,2.88h42.98c7.62,0,14.4-3.96,18.15-10.58,3.76-6.63,3.65-14.48-.26-21.01l-8.73-14.54Z"/>
        <path d="M823.64,661.13c-6.22-10.36-17.59-16.81-29.68-16.81h-6.31c-2.14,0-3.89,1.74-3.89,3.89s1.74,3.88,3.89,3.88h6.31c9.38,0,18.2,4.99,23.02,13.03l8.73,14.55c2.65,4.42,2.71,9.72,.18,14.2-2.54,4.47-7.12,7.15-12.27,7.15h-42.98c-2.14,0-3.89,1.74-3.89,3.88s1.74,3.89,3.89,3.89h42.98c7.99,0,15.1-4.15,19.03-11.09,3.93-6.94,3.83-15.18-.27-22.03l-8.73-14.54Zm7.24,35.58c-3.57,6.31-10.03,10.07-17.27,10.07h-42.98c-1.03,0-1.87-.84-1.87-1.87s.84-1.87,1.87-1.87h42.98c5.88,0,11.13-3.06,14.02-8.17,2.9-5.12,2.82-11.19-.21-16.24l-8.72-14.55c-5.19-8.65-14.67-14.01-24.75-14.01h-6.31c-1.03,0-1.87-.84-1.87-1.86s.84-1.87,1.87-1.87h6.31c11.38,0,22.09,6.07,27.95,15.83l8.73,14.54c3.73,6.22,3.82,13.69,.25,20Z"/>
      </g>
      <g>
        <path d="M886.72,395.14h-331.64c-5.67,0-10.27,4.6-10.27,10.27v235.45c0,5.67,4.6,10.28,10.27,10.28h331.64c5.67,0,10.27-4.6,10.27-10.28v-235.45c0-5.67-4.6-10.27-10.27-10.27Z"/>
        <path d="M886.72,394.13h-331.64c-6.22,0-11.28,5.07-11.28,11.29v235.45c0,6.22,5.06,11.28,11.28,11.28h331.64c6.22,0,11.28-5.06,11.28-11.28v-235.45c0-6.22-5.06-11.29-11.28-11.29Zm9.26,246.74c0,5.11-4.15,9.26-9.26,9.26h-331.64c-5.11,0-9.26-4.15-9.26-9.26v-235.45c0-5.11,4.15-9.27,9.26-9.27h331.64c5.11,0,9.26,4.15,9.26,9.27v235.45Z"/>
      </g>
      <g>
        <path class="cls-1" d="M548.74,395.14h331.64c5.67,0,10.27,4.6,10.27,10.27v235.46c0,5.67-4.6,10.27-10.27,10.27h-331.64c-5.67,0-10.27-4.6-10.27-10.27v-235.46c0-5.67,4.6-10.27,10.27-10.27Z"/>
        <path d="M880.38,394.13h-331.64c-6.22,0-11.28,5.07-11.28,11.29v235.45c0,6.22,5.06,11.28,11.28,11.28h331.64c6.22,0,11.28-5.06,11.28-11.28v-235.45c0-6.22-5.06-11.29-11.28-11.29Zm9.26,246.74c0,5.11-4.15,9.26-9.26,9.26h-331.64c-5.1,0-9.26-4.15-9.26-9.26v-235.45c0-5.11,4.16-9.27,9.26-9.27h331.64c5.11,0,9.26,4.15,9.26,9.27v235.45Z"/>
      </g>
      <g>
        <rect class="cls-3" x="547.5" y="402.6" width="334.11" height="221.72"/>
        <path d="M881.61,401.59h-334.11c-.56,0-1.01,.45-1.01,1.01v221.72c0,.56,.45,1.01,1.01,1.01h334.11c.56,0,1.01-.45,1.01-1.01v-221.72c0-.56-.45-1.01-1.01-1.01Zm-1.01,221.72h-332.09v-219.7h332.09v219.7Z"/>
      </g>
      <g>
        <g>
          <path class="cls-1" d="M690,613.79c-7.07,0-12.83-5.75-12.83-12.83v-175.01c0-7.08,5.76-12.83,12.83-12.83h140.12c7.07,0,12.83,5.75,12.83,12.83v175.01c0,7.07-5.75,12.83-12.83,12.83h-140.12Z"/>
          <path d="M830.12,413.91c6.64,0,12.04,5.4,12.04,12.04v175.01c0,6.63-5.4,12.04-12.04,12.04h-140.12c-6.64,0-12.04-5.4-12.04-12.04v-175.01c0-6.64,5.4-12.04,12.04-12.04h140.12Zm0-1.58h-140.12c-7.52,0-13.62,6.1-13.62,13.62v175.01c0,7.52,6.09,13.62,13.62,13.62h140.12c7.52,0,13.62-6.1,13.62-13.62v-175.01c0-7.52-6.1-13.62-13.62-13.62h0Z"/>
        </g>
        <g>
          <rect class="cls-1" x="690.76" y="475.97" width="138.6" height="115.25"/>
          <path d="M828.57,476.76v113.67h-137.02v-113.67h137.02Zm1.58-1.58h-140.18v116.83h140.18v-116.83h0Z"/>
        </g>
        <g>
          <g>
            <polygon class="cls-2" points="729.99 549.55 705.99 591.12 753.99 591.12 729.99 549.55"/>
            <path d="M755.35,591.91h-50.73l25.37-43.94,25.37,43.94Zm-48-1.58h45.27l-22.64-39.21-22.63,39.21Z"/>
          </g>
          <g>
            <polygon class="cls-2" points="779.83 521.28 739.51 591.12 820.15 591.12 779.83 521.28"/>
            <path d="M821.51,591.91h-83.37l.68-1.18,41-71.02,41.69,72.2Zm-80.64-1.58h77.91l-38.96-67.47-38.95,67.47Z"/>
          </g>
          <g>
            <path class="cls-7" d="M730.99,506c0,6.9-5.6,12.5-12.5,12.5s-12.5-5.6-12.5-12.5,5.6-12.5,12.5-12.5,12.5,5.6,12.5,12.5Z"/>
            <path d="M718.49,519.29c-7.33,0-13.29-5.96-13.29-13.29s5.96-13.29,13.29-13.29,13.29,5.96,13.29,13.29-5.96,13.29-13.29,13.29Zm0-25.01c-6.46,0-11.71,5.26-11.71,11.72s5.25,11.71,11.71,11.71,11.72-5.25,11.72-11.71-5.26-11.72-11.72-11.72Z"/>
          </g>
        </g>
        <g>
          <path class="cls-2" d="M677.19,425.16c.41-6.71,5.99-12.04,12.8-12.04h140.12c6.81,0,12.39,5.33,12.8,12.04h-165.73Z"/>
          <path class="cls-4" d="M830.12,413.91c6.1,0,11.16,4.57,11.94,10.46h-163.99c.77-5.9,5.83-10.46,11.93-10.46h140.12Zm0-1.58h-140.12c-7.52,0-13.62,6.1-13.62,13.62h167.35c0-7.52-6.1-13.62-13.62-13.62h0Z"/>
        </g>
        <g>
          <polygon points="685.15 418.43 688.72 421.99 689.25 421.46 685.68 417.9 685.15 418.43"/>
          <polygon points="685.15 421.46 685.68 421.99 689.25 418.43 688.72 417.9 685.15 421.46"/>
          <path d="M694.32,417.56c-1.33,0-2.4,1.08-2.4,2.41s1.08,2.41,2.4,2.41,2.41-1.08,2.41-2.41-1.08-2.41-2.41-2.41Zm0,4.07c-.91,0-1.66-.75-1.66-1.66s.74-1.66,1.66-1.66,1.66,.74,1.66,1.66-.75,1.66-1.66,1.66Z"/>
          <rect x="698.24" y="421.63" width="3.61" height=".75"/>
        </g>
        <g>
          <path class="cls-7" d="M785.02,466.15h-49.94c-8.85,0-16.03-7.17-16.03-16.03h0c0-8.85,7.18-16.03,16.03-16.03h49.94c8.85,0,16.03,7.18,16.03,16.03h0c0,8.85-7.18,16.03-16.03,16.03Z"/>
          <path d="M785.03,466.94h-49.94c-9.27,0-16.82-7.54-16.82-16.82s7.54-16.82,16.82-16.82h49.94c9.27,0,16.81,7.54,16.81,16.82s-7.54,16.82-16.81,16.82Zm-49.94-32.05c-8.4,0-15.24,6.84-15.24,15.24s6.83,15.24,15.24,15.24h49.94c8.4,0,15.24-6.84,15.24-15.24s-6.83-15.24-15.24-15.24h-49.94Z"/>
        </g>
      </g>
      <g>
        <g>
          <path class="cls-8" d="M647.16,506.02c-28.45,0-51.51,23.07-51.51,51.52s23.06,51.51,51.51,51.51,51.52-23.06,51.52-51.51-23.06-51.52-51.52-51.52Z"/>
          <path d="M647.16,504.78c-29.08,0-52.74,23.66-52.74,52.75s23.66,52.75,52.74,52.75,52.75-23.67,52.75-52.75-23.66-52.75-52.75-52.75Zm0,103.03c-27.72,0-50.28-22.55-50.28-50.27s22.56-50.29,50.28-50.29,50.29,22.56,50.29,50.29-22.56,50.27-50.29,50.27Z"/>
        </g>
        <g>
          <path class="cls-1" d="M640.2,564.58l-14.12-14.12-9.3,9.3,18.77,18.78c1.24,1.23,2.91,1.92,4.65,1.92s3.42-.69,4.65-1.92l32.7-32.71-9.3-9.3-28.05,28.05Z"/>
          <path d="M640.2,581.39c-2,0-3.88-.78-5.31-2.19l-19.43-19.43,10.62-10.61,14.12,14.12,28.05-28.05,10.61,10.61-33.36,33.36c-1.42,1.42-3.3,2.2-5.31,2.2Zm-22.11-21.63l18.12,18.12c2.15,2.13,5.86,2.13,7.99,0l32.05-32.05-7.99-7.99-28.05,28.05-14.12-14.12-7.99,7.99Z"/>
        </g>
      </g>
    </g>
    <g>
      <polygon class="cls-8" points="489.42 189.69 475.46 198.22 468.31 212.94 459.78 198.98 445.06 191.83 459.02 183.3 466.17 168.59 474.7 182.54 489.42 189.69"/>
      <polygon class="cls-8" points="739.33 235.44 725.38 243.97 718.22 258.68 709.69 244.73 694.98 237.58 708.94 229.05 716.08 214.33 724.62 228.29 739.33 235.44"/>
      <polygon class="cls-8" points="642.4 145.77 635.43 150.03 631.86 157.38 627.59 150.4 620.24 146.84 627.22 142.57 630.79 135.22 635.05 142.19 642.4 145.77"/>
      <polygon class="cls-8" points="795.84 357.05 788.87 361.31 785.3 368.66 781.03 361.69 773.68 358.12 780.66 353.86 784.23 346.51 788.49 353.48 795.84 357.05"/>
      <polygon class="cls-8" points="814.58 254.03 807.61 258.29 804.04 265.65 799.77 258.67 792.42 255.1 799.4 250.84 802.97 243.49 807.23 250.46 814.58 254.03"/>
      <polygon class="cls-8" points="741.23 129.89 734.26 134.15 730.69 141.5 726.43 134.53 719.08 130.96 726.05 126.7 729.62 119.34 733.88 126.32 741.23 129.89"/>
      <polygon class="cls-8" points="558.58 69.6 551.6 73.87 548.03 81.21 543.77 74.24 536.42 70.67 543.39 66.41 546.96 59.06 551.23 66.03 558.58 69.6"/>
      <polygon class="cls-8" points="493.83 336.47 486.86 340.73 483.28 348.09 479.02 341.11 471.67 337.54 478.64 333.28 482.22 325.93 486.48 332.9 493.83 336.47"/>
      <polygon class="cls-8" points="585 254.31 578.03 258.57 574.46 265.92 570.19 258.95 562.84 255.38 569.81 251.12 573.39 243.76 577.65 250.74 585 254.31"/>
    </g>
    <g class="cls-5">
      <g>
        <g>
          <g>
            <path class="cls-1" d="M376.46,283.64c3.48-8.29-18.25-29.72-23.58-26.44-2.9,1.79-4.28,4.14-4.28,4.14,0,0-8.16-8.6-13.96-4.79,0,0-8.1-3.68-13.46,2.69,0,0-11.12-8.38-19.57,9.65-3.91,8.35-1.93,13.93,7.93,14.82l6.34-12.93c-14.37,29.64-12.64,44.41-6.08,51.42-2.02,34.44-1.15,61.06-1.15,61.06l53.58-11.9s-12.77-52.74-10.62-57.32c5.31-11.34,21.39-22.1,24.86-30.4Z"/>
            <path d="M352.51,314.47c2.73-5.83,8.34-11.46,13.77-16.91,4.83-4.85,9.39-9.42,11.11-13.52,3.15-7.51-11.44-23.41-19.59-27.22-2.35-1.1-4.18-1.26-5.45-.48-1.88,1.16-3.17,2.54-3.9,3.47-1.16-1.06-3.34-2.89-5.87-4.07-3.09-1.45-5.8-1.55-8.05-.3-1.89-.68-8.6-2.59-13.55,2.51-.25-.15-.55-.31-.9-.47-3.51-1.64-12.43-3.86-19.39,11-4.28,9.15-.84,13.11,2.81,14.81,1.44,.67,3.22,1.13,5.3,1.37-6.59,17.81-6.61,30.53-.05,37.92-1.96,33.89-1.13,60.46-1.12,60.72l.03,1.22,55.77-12.39-.24-1c-4.9-20.26-12.14-53.55-10.69-56.65Zm-42.89,67.54c-.14-5.61-.57-29.86,1.18-59.75l.03-.43-.3-.32c-7.81-8.35-5.64-25.74,6.26-50.29l-1.82-.88-6.03,12.29c-7.93-.93-10.14-5.35-6.42-13.31,5.96-12.74,13.03-11.75,16.7-10.03,.84,.39,1.33,.76,1.33,.76l.77,.57,.62-.73c4.79-5.69,11.97-2.56,12.28-2.42l.5,.23,.46-.3c1.71-1.12,3.91-1.07,6.54,.16,3.33,1.56,6.11,4.46,6.13,4.49l.92,.96,.69-1.14s1.32-2.18,3.95-3.8c.62-.39,1.91-.18,3.53,.58,7.98,3.74,21.09,18.63,18.58,24.61-1.57,3.73-5.99,8.17-10.67,12.88-5.3,5.31-11.3,11.34-14.18,17.48-2.11,4.51,7.72,46.2,10.31,56.98l-51.38,11.41Z"/>
          </g>
          <path d="M321.12,258.41l-.14,2.01s3.03,.67,6.15,11.15l1.93-.57c-3.53-11.84-7.24-12.57-7.95-12.59Z"/>
          <path d="M335.11,255.66l-.95,1.78c.29,.16,7.02,3.95,6.01,15.7l2.01,.17c1.14-13.15-6.73-17.48-7.06-17.65Z"/>
          <path d="M356.28,274.21c-3.04-9.02-7.26-14.06-7.45-14.28l-1.54,1.31c.04,.05,4.53,5.42,7.45,14.8l.39,1.24,6.32-3.88-1.06-1.72-4.12,2.53Z"/>
          <g>
            <path class="cls-7" d="M357.9,322.2s-62.72,3.92-91.11,31.15c0,0,22.1,104.46,27.08,114.4,4.06,8.1,64.57,98.21,132.8,141.45l66.77-102.5c-62.5-49.55-115.23-84.82-115.23-84.82,0,0-15.02-63.01-20.32-99.67Z"/>
            <path d="M358.9,322.06l-.13-.92-.93,.06c-.62,.04-63.41,4.26-91.74,31.43l-.41,.39,.12,.55c.9,4.27,22.19,104.7,27.17,114.64,3.57,7.13,64,98.02,133.16,141.85l1.08-1.71c-68.8-43.6-128.89-133.96-132.44-141.04-4.67-9.35-25.13-105.38-26.88-113.6,26.09-24.54,81.31-29.79,89.13-30.42,5.37,36.42,20.05,98.2,20.2,98.83l.09,.38,.33,.22c.52,.35,53.41,35.81,115.16,84.78l1.25-1.59c-59.26-46.99-110.38-81.57-114.96-84.65-1.26-5.34-15.19-64.49-20.21-99.2Z"/>
          </g>
        </g>
        <g>
          <path class="cls-1" d="M568.48,720.86c-10.84-64.53-47.12-224.25-73.98-219.74-26.85,4.51-24.05,229.62-22.84,236l96.82-16.26Z"/>
          <path d="M470.67,737.31c-.6-3.14-1.47-54.14,.41-106.99,1.72-48.44,6.14-109.59,17.44-125.83,1.78-2.55,3.73-4.02,5.81-4.37,28.27-4.75,64.97,160.02,75.14,220.57l.16,1-98.78,16.59-.18-.97Zm23.99-235.19c-1.53,.26-3.04,1.44-4.49,3.53-20.2,29.01-19.29,212.99-17.64,230.3l94.79-15.92c-12.9-76.22-48.28-222.01-72.65-217.92Z"/>
        </g>
        <g>
          <path class="cls-1" d="M448.21,450.08s1.46,16.67,7.53,31.3c0,0-49.59-2.37-64.12,.07,0,0-.13-19.95-2.56-29.02l59.15-2.35Z"/>
          <path d="M455.69,482.39c-.49-.03-49.65-2.34-63.9,.06l-1.17,.19v-1.19c0-.19-.17-19.92-2.53-28.77l-.32-1.22,61.38-2.43,.08,.96c.01,.16,1.51,16.68,7.45,31l.61,1.47-1.59-.08Zm-65.36-29c1.86,8.23,2.22,22.67,2.28,26.89,14.26-1.95,53.14-.35,61.6,.02-4.78-12.22-6.5-25.53-6.91-29.17l-56.97,2.26Z"/>
        </g>
        <g>
          <path class="cls-7" d="M526.97,626.14c-10.8-52.65-42.19-143.64-63.2-149.36l-72.84-4.78s-18.36,31.74-25.52,74.18c-7.26,43.03,7.62,207.5,7.62,207.5l171.6-28.81s-7.73-50.32-17.66-98.72Z"/>
          <path d="M372.13,754.85l-.1-1.09c-.15-1.65-14.82-165.09-7.62-207.75,7.11-42.13,25.47-74.19,25.65-74.52l.31-.54,73.67,4.86c22.69,6.18,54.13,102.42,63.92,150.13,9.83,47.88,17.6,98.27,17.68,98.77l.15,.99-173.66,29.15Zm-5.73-208.5c-6.84,40.58,6.27,191.79,7.54,206.15l169.54-28.46c-1.14-7.28-8.44-53.56-17.51-97.69-11.51-56.12-42.82-143.24-62.27-148.55l-72.21-4.74c-2.43,4.37-18.56,34.53-25.1,73.3Z"/>
        </g>
        <g>
          <path d="M385.13,352.59s-1.08-22.71,39.26-20.21c29.14,1.8,33.83-1.28,33.83-1.28,0,0-1.41,10.65-12.64,15.34,0,0,19.83-5.93,22.12,14.91,2.3,20.84-9.87,25.89-8.46,35.46,1.41,9.57,20.47,16.99,4.62,33.47-15.86,16.48-52.24,47.49-85.63,12.38-32.35-34.02-20.16-103.35,6.9-90.08Z"/>
          <path d="M377.5,443.37c-19.35-20.36-23.53-54.68-16.38-76.1,4.61-13.82,13.44-20.06,23.1-16.18,.52-4.23,3.71-15.82,22.95-19.05,5.01-.84,10.83-1.07,17.29-.66,17.1,1.06,25.73,.44,29.95-.27,2.47-.41,3.27-.84,3.27-.84h0l1.85-1.21-.29,2.19c-.05,.38-1.17,8.09-8.43,13.43,3.39-.12,7.73,.43,11.35,3.16,3.69,2.79,5.9,7.3,6.57,13.41,1.39,12.6-2.36,19.55-5.39,25.14-2.01,3.74-3.61,6.69-3.08,10.28,.41,2.75,2.51,5.45,4.74,8.29,4.93,6.29,11.07,14.11-.4,26.03-15.59,16.21-30.9,25.67-45.51,28.13h0c-15.22,2.55-29.21-2.74-41.58-15.75Zm68.36-95.95l-.68-1.9c8.02-3.35,10.77-9.79,11.65-12.86-3.3,.86-11.76,2.02-32.51,.73-6.31-.39-11.97-.17-16.83,.64-21.72,3.65-21.39,17.91-21.36,18.52l.07,1.69-1.53-.75c-9.12-4.48-17.22,1.13-21.65,14.39-6.96,20.86-2.9,54.27,15.93,74.08,11.88,12.49,25.26,17.58,39.78,15.14h0c13.96-2.34,29.32-11.87,44.38-27.53,10.25-10.66,5.18-17.12,.26-23.38-2.4-3.07-4.67-5.96-5.15-9.24-.62-4.26,1.19-7.63,3.3-11.54,2.88-5.34,6.47-11.99,5.15-23.96-.61-5.54-2.55-9.58-5.78-12.02-4.39-3.31-10.12-2.95-13.15-2.44-1.15,.19-1.9,.41-1.9,.41Z"/>
        </g>
        <g>
          <path class="cls-1" d="M468.49,422.32c-2.64-10.88-9.43-31.69-13.49-41.93-9.42-23.73-24.66-10.98-24.66-10.98-25.44-2.2-45.92,14.5-45.59,23.04,.17,4.36,1.35,12.71,2.98,21.18-.05,0-.1,.01-.16,.03-8.05,1.35-13.48,8.97-12.13,17.02,1.36,8.05,8.97,13.48,17.02,12.12,1.05-.17,2.05-.46,3.01-.84,3.48,10.84,7.9,24.76,18.7,31.68,6.88,4.41,17.99-4.48,23.6,5.24,13.94-3.02,25.75-8.78,33.08-21,5.45-9.07,.26-24.69-2.37-35.57Z"/>
          <path d="M436.91,479.39c-2.94-5.09-7.38-4.52-12.52-3.85-3.73,.49-7.58,.98-10.76-1.04-10.73-6.88-15.23-20.14-18.8-31.23-9.19,2.94-18.82-3.09-20.38-12.42-1.38-8.24,3.91-16.08,12.1-18-1.56-8.27-2.66-16.18-2.82-20.35-.31-8.1,14.31-20.41,32.92-23.53,4.44-.74,8.93-.95,13.37-.6,.94-.7,3.72-2.59,7.37-3.2,5.41-.91,13.02,.93,18.54,14.85,3.89,9.8,10.79,30.74,13.53,42.06,.34,1.4,.73,2.89,1.12,4.42,2.72,10.53,6.1,23.64,1.14,31.9-6.67,11.1-17.39,17.92-33.74,21.47l-.72,.16-.37-.64Zm-5.92-109.21l-.32,.27-.42-.04c-4.4-.38-8.86-.2-13.26,.54-18.17,3.05-31.48,15.12-31.24,21.46,.16,4.24,1.33,12.5,2.97,21.03l.04,1.03-1.02,.17c-7.49,1.26-12.56,8.37-11.3,15.86,1.26,7.49,8.37,12.55,15.86,11.3,.95-.16,1.89-.42,2.8-.79l1.05-.25,.33,1.03c3.46,10.82,7.78,24.3,18.23,31,2.55,1.63,5.88,1.2,9.41,.74,4.93-.65,10.51-1.37,14.14,4.2,15.37-3.45,25.46-9.94,31.73-20.38,4.52-7.53,1.26-20.19-1.37-30.35-.4-1.55-.79-3.04-1.13-4.46-2.72-11.24-9.58-32.05-13.44-41.79-3.98-10.03-9.63-14.73-16.34-13.61-3.85,.65-6.71,3-6.75,3.02Z"/>
        </g>
        <path class="cls-1" d="M467.78,422.95c-.34-1.39-.81-3.1-1.37-5.01-2.97,2.66-6.86,4.63-11.79,5.45-6.11,1.03-10.03-.99-14.83-.93-6.42,.06-12.2,2.69-15.79,6.31-4.52,4.55-8.58,9.03-16.86,10.42-4.55,.76-8.57,.35-12.04-.94,3.65,10.92,7.64,27.23,19.55,34.87,6.74,4.32,17.59-4.37,23.08,5.12,13.63-2.93,25.18-8.58,32.36-20.52,5.32-8.88,.25-24.16-2.32-34.78Zm-14.58,7.31c-.24,2.57-2.39,7.86-7.91,11.1-9.62,5.68-19.85-.21-18.39-5.69,.79-2.91,10.6-.12,21.84-6.82,2.03-1.22,4.73-1.6,4.46,1.41Zm-25.65,10.65c-1.53-1.68-2.1-3.63-1.61-5.5,.4-1.45,1.92-1.91,3.5-2.17,.73-.13,1.57-.22,2.53-.33,1.19-.13,2.55-.29,4.04-.54,4.64-.78,8.51-2.17,12.21-4.37,.83-.5,1.73-.85,2.52-.98,1.37-.23,2.17,.2,2.61,.61,.65,.61,.93,1.52,.82,2.73-.23,2.53-2.28,8.27-8.39,11.86-1.91,1.13-3.93,1.87-6.02,2.22-4.75,.8-9.55-.58-12.23-3.53Zm21.7-11.21c-3.91,2.33-8.01,3.8-12.9,4.62-1.53,.26-2.93,.42-4.15,.55-.92,.11-1.73,.2-2.43,.32-1.49,.24-1.87,.54-1.92,.73-.32,1.2,.09,2.5,1.16,3.66,1.83,2.01,5.77,3.7,10.44,2.91,1.84-.31,3.64-.98,5.34-1.98,5.03-2.96,7.2-7.8,7.43-10.33,.05-.54-.03-.94-.2-1.1-.15-.14-.5-.18-.94-.11-.55,.09-1.2,.35-1.83,.73Z"/>
        <g>
          <path d="M449.04,428.35c2.08-1.25,4.83-1.63,4.56,1.45-.25,2.63-2.45,8.03-8.09,11.35-9.84,5.8-20.3-.22-18.81-5.83,.81-2.97,10.84-.13,22.34-6.97Z"/>
          <path d="M425.73,435.06c-.51,1.91,.08,3.91,1.64,5.62,2.74,3.01,7.65,4.42,12.5,3.61,2.13-.36,4.2-1.12,6.15-2.27,6.24-3.68,8.34-9.54,8.58-12.12,.11-1.24-.17-2.17-.84-2.79-.45-.41-1.27-.85-2.67-.62-.81,.13-1.72,.49-2.57,1.01-3.78,2.25-7.75,3.67-12.49,4.47-1.52,.26-2.92,.41-4.13,.55-.98,.11-1.85,.21-2.59,.33-1.62,.27-3.17,.73-3.58,2.22Zm1.95,.52c.05-.2,.44-.49,1.96-.75,.71-.12,1.55-.21,2.49-.32,1.25-.14,2.68-.3,4.24-.57,4.99-.84,9.19-2.34,13.19-4.73,.64-.39,1.3-.65,1.87-.74,.44-.08,.81-.03,.96,.11,.17,.17,.25,.57,.2,1.12-.23,2.59-2.45,7.55-7.59,10.57-1.74,1.03-3.57,1.71-5.46,2.02-4.77,.81-8.81-.92-10.68-2.97-1.09-1.2-1.51-2.52-1.18-3.75Z"/>
        </g>
        <g>
          <path d="M404.14,404.01c-.53,1.12-.56,2.45-.07,3.64l2.22,5.44c1.59,3.85,5.29,6.1,8.98,5.48,.26,0,.57-.11,.86-.2l11.39-3.3c3.91-1.16,6.24-5.35,5.44-9.75l-1.03-5.78c-.44-2.48-2.76-4.12-5.05-3.49l-20.45,5.95c-1.02,.29-1.83,1.02-2.31,2.01Zm1.82,.87c.23-.47,.6-.81,1.06-.95l20.43-5.94h.01c1.21-.21,2.28,.68,2.5,1.91l1.02,5.78c.62,3.39-1.11,6.6-4.02,7.46l-11.39,3.3c-3.04,.89-6.1-.92-7.42-4.11l-2.22-5.44c-.28-.67-.27-1.4,.03-2.01Z"/>
          <path d="M436.52,394.59c-.54,1.12-.56,2.44-.07,3.63l2.22,5.42c1.6,3.86,5.31,6.11,9.03,5.49,.27-.04,.54-.1,.81-.19l11.4-3.31c3.91-1.16,6.24-5.36,5.44-9.78l-1.02-5.75c-.46-2.5-2.79-4.17-5.07-3.49l-20.43,5.94c-1.02,.3-1.84,1.02-2.32,2.03Zm1.82,.87c.23-.48,.61-.81,1.07-.96l20.43-5.94h.02c1.22-.21,2.26,.69,2.49,1.9l1.02,5.76c.62,3.4-1.11,6.62-4.01,7.48l-11.4,3.31c-2.94,.8-6.1-.95-7.42-4.14l-2.21-5.42c-.28-.66-.27-1.39,.02-2Z"/>
          <path d="M437.88,396.96l-.98,1.76c-3.06-1.71-4.87,1.17-5.06,1.5l-1.75-1.02c1-1.72,3.91-4.41,7.79-2.25Z"/>
        </g>
        <path d="M456.66,384.04l-.31,2c-9.92-1.56-15,1.27-15.05,1.29l-1.01-1.75c.23-.13,5.68-3.21,16.37-1.54Z"/>
        <path d="M419.16,387.09l.08,2.02c-.07,0-5.85,.31-13.43,6.91l-1.33-1.52c8.16-7.11,14.42-7.4,14.68-7.41Z"/>
        <g>
          <path d="M413.68,405.7c1.31-.22,2.57,.67,2.79,1.99,.22,1.32-.68,2.57-1.99,2.79-1.32,.22-2.57-.67-2.79-1.98-.22-1.33,.67-2.58,1.99-2.8Z"/>
          <path d="M410.7,408.66c.32,1.87,2.08,3.13,3.95,2.82,1.87-.31,3.13-2.09,2.82-3.95-.31-1.87-2.08-3.13-3.95-2.82-1.87,.32-3.13,2.09-2.82,3.95Zm1.99-.33c-.13-.77,.39-1.49,1.16-1.62,.77-.13,1.5,.39,1.63,1.16,.13,.76-.39,1.5-1.16,1.62-.77,.13-1.5-.39-1.63-1.16Z"/>
        </g>
        <g>
          <path d="M448.15,395.77c1.32-.22,2.57,.67,2.79,1.99,.22,1.32-.67,2.56-1.98,2.79-1.32,.22-2.57-.67-2.79-1.98-.22-1.32,.67-2.57,1.99-2.8Z"/>
          <path d="M445.16,398.73c.31,1.87,2.09,3.13,3.96,2.82,1.86-.31,3.13-2.09,2.81-3.95-.32-1.87-2.09-3.13-3.95-2.82-1.87,.32-3.13,2.09-2.82,3.96Zm1.99-.33c-.13-.77,.39-1.5,1.16-1.63,.76-.13,1.49,.39,1.62,1.16,.13,.76-.39,1.5-1.16,1.62-.77,.13-1.5-.39-1.63-1.16Z"/>
        </g>
        <path d="M434.86,413.04l.13-2.01c1.89,.12,3.14,.76,3.74,1.91,.99,1.9-.39,4.24-.56,4.51l-1.72-1.06c.21-.33,.89-1.73,.48-2.51-.3-.59-1.29-.78-2.07-.83Z"/>
        <g>
          <path d="M383.19,420.61c3.36-2.13,7.74-2.12,10.62,.03l-1.21,1.61c-2.19-1.64-5.7-1.61-8.33,.06-2.47,1.58-3.55,4.15-2.96,7.06,1.43,6.96,9.58,6.53,9.92,6.51l.13,2.01c-3.54,.24-10.62-1.15-12.04-8.12-.76-3.72,.68-7.15,3.86-9.16Z"/>
          <path d="M385.69,421.34c-.48,1.86-.35,3.32,.39,4.36,1.14,1.57,3.39,1.76,3.41,1.76l-.13,2.01c-.13,0-3.2-.23-4.9-2.58-1.12-1.55-1.36-3.59-.72-6.05l1.95,.51Z"/>
        </g>
        <g>
          <path class="cls-1" d="M553.48,282.48c-2.37-8.68,21.99-27.07,26.84-23.12,2.63,2.15,3.7,4.67,3.7,4.67,0,0,9.22-7.46,14.47-2.92,0,0,8.51-2.58,12.99,4.43,0,0,12.13-6.84,18.13,12.13,2.78,8.78,.09,14.07-9.8,13.65l-4.59-13.65c10.36,31.27,6.71,45.69-.71,51.77-2.52,34.41-6.87,60.68-6.87,60.68l-51.55-18.83s19.57-50.61,18.04-55.43c-3.77-11.93-18.3-24.72-20.66-33.4Z"/>
          <path d="M555.15,370.95l-.37,.96,53.67,19.6,.2-1.21c.04-.26,4.35-26.48,6.85-60.34,7.48-6.46,9.12-19.08,4.93-37.6,2.09,.04,3.92-.19,5.43-.66,3.84-1.22,7.78-4.69,4.73-14.32-4.95-15.65-14.09-14.62-17.78-13.45-.37,.12-.7,.23-.96,.35-4.23-5.7-11.14-4.69-13.1-4.26-2.06-1.53-4.76-1.79-8.01-.76-2.67,.84-5.07,2.37-6.36,3.27-.6-1.01-1.7-2.55-3.41-3.95-1.16-.94-2.99-1.02-5.46-.24-8.58,2.71-25.13,16.56-22.99,24.41,1.17,4.29,5.09,9.42,9.24,14.86,4.67,6.12,9.49,12.44,11.44,18.57,1.03,3.26-10.51,35.32-18.03,54.76Zm2.25-.23c3.98-10.35,19.2-50.39,17.7-55.14-2.04-6.47-7.2-13.23-11.76-19.19-4.02-5.28-7.82-10.26-8.89-14.17-1.71-6.26,13.25-19.3,21.65-21.96,1.71-.54,3.01-.58,3.58-.11,2.39,1.95,3.41,4.26,3.42,4.28l.52,1.22,1.04-.83s3.15-2.53,6.67-3.64c2.76-.88,4.95-.64,6.5,.7l.42,.36,.53-.16c.32-.1,7.84-2.26,11.85,4.01l.52,.8,.84-.46s.54-.3,1.42-.58c3.87-1.23,11-1.28,15.24,12.13,2.66,8.38-.13,12.47-8.1,12.36l-4.37-12.98-1.92,.64c8.59,25.89,8.45,43.42-.38,50.68l-.34,.28-.03,.43c-2.18,29.86-5.8,53.85-6.67,59.39l-49.44-18.05Z"/>
        </g>
        <path d="M611.65,264.73l-.13,2.01s-3.09,.27-7.56,10.24l-1.84-.82c5.05-11.28,8.83-11.51,9.53-11.43Z"/>
        <path d="M598.14,260.16l.72,1.89c-.31,.12-7.48,2.99-8.02,14.78l-2.01-.1c.6-13.18,8.96-16.44,9.31-16.57Z"/>
        <path d="M574.72,275.77c4.19-8.55,9.04-12.98,9.25-13.18l1.35,1.5s-5.2,4.78-9.32,13.7l-.55,1.18-5.76-4.68,1.27-1.57,3.75,3.05Z"/>
        <g>
          <path class="cls-7" d="M566.82,323.15s61.66,12.11,86.23,42.83c0,0-35.61,100.65-41.85,109.85-5.08,7.5-76.89,88.89-150.2,122.81l-52.75-110.38c68.46-40.93,125.36-68.98,125.36-68.98,0,0,23.15-60.5,33.22-96.14Z"/>
          <path d="M565.85,322.87l.25-.9,.92,.18c.62,.12,62.31,12.54,86.83,43.19l.35,.44-.19,.53c-1.46,4.12-35.73,100.89-41.97,110.09-4.47,6.59-76.3,88.77-150.61,123.15l-.85-1.83c73.92-34.2,145.34-115.9,149.79-122.46,5.86-8.65,38.74-101.17,41.55-109.09-22.65-27.75-76.7-40.2-84.38-41.85-10.1,35.4-32.76,94.73-32.99,95.33l-.14,.37-.35,.17c-.57,.28-57.65,28.5-125.29,68.94l-1.03-1.74c64.92-38.82,120.13-66.38,125.07-68.84,1.95-5.13,23.51-61.94,33.04-95.69Z"/>
        </g>
      </g>
    </g>
  </g>
</svg>