<?xml version="1.0" encoding="UTF-8"?>
<svg id="Vector" xmlns="http://www.w3.org/2000/svg" xmlns:xlink="http://www.w3.org/1999/xlink" viewBox="0 0 2642.21 566.71">
  <defs>
    <style>
      .cls-1 {
        fill: url(#linear-gradient);
        stroke-width: 0px;
      }

      .cls-2 {
        fill: #01293f;
        font-family: Hey-Comic, 'Hey Comic';
        font-size: 323.54px;
      }
    </style>
    <linearGradient id="linear-gradient" x1="209.45" y1="472.01" x2="384.5" y2="96.48" gradientUnits="userSpaceOnUse">
      <stop offset="0" stop-color="#a4724f"/>
      <stop offset="1" stop-color="#efbc9c"/>
    </linearGradient>
  </defs>
  <path class="cls-1" d="m701.81,125.71l-14.03,14.58-72.53,72.53-15.24,15.24c-28.37,28.37-43.49,66.34-43.49,105.01,0,17.44,3.06,34.99,9.37,51.88l17.28,46.43h-14.11c-72.49,0-138.44-42.67-168.61-107.64h-.04c-42.12,42.16-55.95,104.97-35.34,160.93l19.36,52.55h-14.07c-77.54,0-147.68-48.9-174.49-121.67L56.88,38.21h14.07c77.54,0,147.68,48.9,174.49,121.71l78.37,212.77c28.88-28.88,44.28-67.51,44.28-106.89,0-17.71-3.13-35.58-9.52-52.78l-65.12-174.8h14.11c77.54,0,147.68,48.9,174.49,121.71l42.98,115.4h.04c41.14-41.14,54.62-102.5,34.48-157.13l-29.47-79.97h14.07c59.64,0,114.85,28.92,149.37,75.35,2.94,3.92,5.72,7.95,8.31,12.15Z"/>
  <text class="cls-2" transform="translate(759.13 402.4)"><tspan x="0" y="0">Wayaenikah</tspan></text>
</svg>